<?xml version="1.0" standalone="no"?>
<!DOCTYPE svg PUBLIC "-//W3C//DTD SVG 20010904//EN"
 "http://www.w3.org/TR/2001/REC-SVG-20010904/DTD/svg10.dtd">
<svg version="1.0" xmlns="http://www.w3.org/2000/svg"
 width="260.000000pt" height="260.000000pt" viewBox="0 0 260.000000 260.000000"
 preserveAspectRatio="xMidYMid meet">
<metadata>
Created by potrace 1.11, written by Peter Selinger 2001-2013
</metadata>
<g transform="translate(0.000000,260.000000) scale(0.100000,-0.100000)"
fill="#000000" stroke="none">
<path d="M1278 2575 c-2 -1 -41 -5 -88 -8 -155 -9 -315 -55 -470 -132 -333
-168 -588 -497 -662 -855 -11 -52 -22 -111 -23 -130 -6 -56 -6 -242 0 -280 2
-19 7 -54 10 -77 8 -59 51 -205 84 -283 79 -188 231 -385 387 -501 32 -24 61
-47 62 -51 2 -5 9 -8 15 -8 6 0 18 -6 26 -14 54 -48 319 -153 431 -171 25 -4
54 -9 65 -12 54 -11 279 -10 360 3 416 62 780 330 958 704 35 72 89 220 81
220 -2 0 1 11 6 24 9 23 14 54 30 166 11 78 5 284 -10 355 -7 33 -13 65 -15
70 -16 80 -57 191 -106 287 -159 317 -452 554 -801 647 -94 26 -126 31 -223
37 -44 3 -88 6 -97 8 -9 2 -18 3 -20 1z"/>
</g>
</svg>
