<svg xmlns="http://www.w3.org/2000/svg" width="859.4" height="430.8" viewBox="0 0 859.4 430.8">
  <style>
    .st0{fill:#fff}
  </style>
  <path class="st0" d="M182.8 119.9c8.9 2.3 14 4.4 15.3 6.5 8.2 5.2 12.3 12.5 12.3 21.8 0 7-2.4 12.2-7.3 15.7-.5.3-1 .4-1.6.4h-.3c-.5 0-.8-.3-.8-.8v-.7c3.6-6 5.4-11 5.4-14.9v-2c0-2.7-1.8-6.4-5.4-11.1-5.4-5.2-11.4-8.5-18-10h-9.2c-5.5 0-12.3 2.7-20.3 8.1-9.8 7.9-17.8 22.7-24.1 44.4-1.8 5.1-4.7 14.8-8.9 29.1l-6.2 18.8c-.7.5-2 3.8-3.8 10-.9 1.2-2.6 4.7-5 10.7-3.8 6.9-8.6 14.2-14.6 21.9-10.8 11.3-18 17.5-21.5 18.7-4.7 3.2-9.7 6.3-14.9 9.2v.4h.4c.2 0 .7-.1 1.6-.4l.7.4c10.2-1.3 19.5-2.3 28-3 28.6 1.3 42.9 2.7 42.9 4.2 16.2 2.3 31.7 6.2 46.3 11.9 1.1 0 19.5 7.5 55.2 22.6 17.9 7.3 32.5 12.8 43.7 16.4 3.2 2 11.7 4.1 25.7 6.2.1 0 1.4.4 3.8 1.2.3 0 .4-.1.4-.4 7.9.6 12.9 1.1 14.9 1.5 2.6-.3 4.6-.4 6.2-.4h4.6l2.7-.4c.1.5.3.8.7.8.6 0 1.1-.1 1.6-.4.3 0 .4.1.4.4 9.9 0 24.1-2.9 42.9-8.8 10.4-3.6 19.3-8.3 26.5-14.2 5.1-3.8 9.1-7 11.9-9.6.6-.5 1.1-.8 1.5-.8 1.1 0 2.6 2.7 4.7 8.1 2.1 3.6 5.8 11.3 11.1 23 .2 0 .8 1 1.9 3.1v.8c0 1.5-2.6 3.7-7.7 6.5-8.4 6.3-21.4 11.8-39.1 16.4-8.6 2.1-19.7 3.6-33.4 4.6h-11.9c-.3 0-.4-.1-.4-.3-.3 0-.4.1-.4.3-19.2-2-31.9-4.1-38.3-6.5-15-3.7-32.7-10.6-52.9-20.7-20-9.8-33.8-17.3-41.4-22.6-15-8.4-25.9-14.1-32.5-16.8-18.9-9.1-32.2-14-39.9-14.9l-15.3-3.8c-11.4-1.1-21.2-1.8-29.6-2.3l-3.4.3c-3.6-.2-5.9-.3-6.9-.3-.6 0-5.8.6-15.7 1.9-.3 0-.4-.1-.4-.4-.7 0-3 .5-6.9 1.5h-3.5l-16.1 1.6c-1.2-.5-2.5-.8-3.9-.8-1.2 0-2.8.1-5 .4-4.7 0-10.6-2.4-17.6-7.3 0-.4-2.2-2.7-6.5-6.9-3.5-5.9-5.4-11.9-5.8-18 0-4.4 1.4-10.3 4.2-17.6 4.4-7.2 8.5-10.8 12.3-10.8h.4l.8.4c-5.4 7.5-8.1 11.3-8.1 11.5-1.8 4.4-2.7 7.1-2.7 8.1-.5 0-.8 3.7-1.1 11.1 1.7 7.4 3.7 12.2 6.1 14.2 5.4 5.4 10.5 8.4 15.3 8.8 0 .5.9.8 2.7.8h.8c5.6 0 12.3-1.9 19.9-5.8 2.4-1.2 5.5-3.6 9.2-7.3 2.1-2.8 4.8-5.9 8.1-9.2 6.9-10 11.3-17.9 13.4-23.7 1.5-1.8 4.1-8.3 8-19.6l17.2-44c6.5-15.6 12.3-26.2 17.3-31.8 1.5-3.7 6.7-10.3 15.7-19.5 12.2-10.5 25.2-15.7 39.1-15.7h4.5zM92 246.8c1.7 0 4.2-4.3 7.3-13l-.7-.4c-.9.9-3.1 5.4-6.6 13.4zm26.5-63.6l-15 41.8 1.1.8c1.3-1.2 2.3-4.5 3.1-10 5.1-11.9 8.8-22.7 11.1-32.3v-.3h-.3zm-12.3 19.5c0 .4-.5 1.4-1.6 3l.8.4c.7-1.8 1.1-2.8 1.1-3v-.4h-.3zm18.4-33.3v.4h.8c.7-2.1 1.1-3.5 1.1-4.2-.7 0-1.3 1.2-1.9 3.8zM211.5 330c0 .4 1.8 1.3 5.4 2.7h.4v-.4c-3.4-1.6-5.3-2.3-5.8-2.3zm6.6 3.1v.3l16.1 7.4.8-.4 13.8 6.1.7-1.1c-12.5-4.9-22.1-8.8-28.7-11.9-1.2 0-1.9-.1-2.3-.3h-.4zm53.3 29.5v.4c8.1 3.6 12.8 5.4 14.2 5.4 3.1 1.7 10 4 20.7 6.9 0 .4 2.6 1.1 7.7 1.9l1.5-.8c4.5.5 9.9 1.3 16.1 2.3.3 0 .4-.1.4-.3l3.9.3h4.6c3.3 0 5.6-.2 6.9-.7.5.3.9.4 1.2.4 1.6-.5 2.6-.8 3-.8v-.4h-.3c-4.9.5-10.1.8-15.7.8-18.8-1.7-34.9-4.9-48.3-9.6-3.1-1.5-8.2-3.5-15.3-5.8h-.6zm10.7-6.6v.8c15.2 4.1 26.9 6.2 35.3 6.2l3.9-1.2v-.4c-4.7-.3-8.2-.4-10.4-.4h-.4c-.3 0-.4-.1-.4-.3-.3 0-.4.1-.4.3-9-1-18.2-2.7-27.6-5zm26.1 9.6v.3c.7 1.8 1.9 2.7 3.4 2.7.8-.2 1.2-.4 1.2-.7 5.5.3 9.6.4 12.3.4h10.8c.5 0 .7-.3.7-.8l-.7-.4H330c-1.5 0-3.5-.1-6.1-.4l-.8.4c-6.1-.6-9.2-1-9.2-1.2-.3 0-.4.1-.4.4l-5.3-.7zm31.4-1.5v.4c.8 0 1.5.1 1.9.4 8 0 20.8-2.6 38.4-7.7 9.4-3.6 15.1-6.2 17.2-7.7-.7 0-1.1-.1-1.1-.4-23.2 9.7-41.6 14.6-55.2 14.6 0 .2-.4.4-1.2.4zm20.3 4.9h-1.1l-2.4-.4c-4 1.1-9 2-14.9 2.7v.4h.4c1.4 0 3.6.1 6.6.4 21.5-1 33.7-2.5 36.8-4.6 14.3-5.4 24-9.6 29.1-12.7v-.4h-.7c-23.2 9.8-41.1 14.6-53.8 14.6zm30.7-12.2v.4h.4c5.9-1.8 13-4.2 21.4-7.3v-.4c-.2-1-.5-1.5-.8-1.5-8.9 4.1-15.9 7-21 8.8zm8.1 11.5l.7.3 16.5-6.1v-.4c-.5-.6-.8-1.3-.8-1.9-10.3 4.3-15.8 6.7-16.5 7.3v.8zm1.1-20.3v.7c6.2-2.3 11.1-4.6 14.6-6.9-.3-1.5-.7-2.3-1.1-2.3l-13.5 8.5z"/>
  <path class="st0" d="M173.4 212.7l1.8.3c1.4-.2 2.7-.3 4.1-.3h.6c3 .4 4.7.6 5 .6h1.9c5.6 2.7 9.6 5.5 11.9 8.4 2.7 5.1 4 10.1 4 15 0 6.2-2.6 12.1-7.8 17.8-3 2.9-5.9 4.3-8.7 4.3l-.6-.9v-.6c8.1-5.6 12.2-13.2 12.2-22.8-.9-5-2.3-8.6-4.1-10.9-4.7-4-9-5.9-12.7-5.9h-2.8c-9.2 0-18.8 5.1-29 15.3-9.4 10.1-14.9 18.8-16.5 26.3-.6 1.4-1.4 3.9-2.2 7.5l.3.6c-.4 1.8-.6 2.8-.6 3.2 0 6 2.7 10.6 8.1 14.1l3.7 1.2c5.2 0 9.8-1.9 13.8-5.6 4.7-3.6 8.8-8.1 12.2-13.4 3.5-4.5 6.4-9.7 8.7-15.7 4.8-12.1 7.2-19.8 7.2-23.1l.9-.6c1.1 0 1.9.5 2.5 1.6 0 6.3-3.1 16.5-9.3 30.6-2.7 9-4 14.4-4 16.2v6.2c1.2 4.8 3 7.2 5.6 7.2 4-.8 8.3-3.8 12.8-8.8 6.3-6.6 10.6-11.7 12.7-15.3 6.1-8.3 9.1-12.7 9.1-13.1 1.5-2.5 2.9-3.7 4-3.7 1.1.6 1.6 1.2 1.6 1.8-4 7.5-9 15.2-15.3 23.1-8 9.8-13.3 15.1-16 16-3.2 2.5-6.3 3.7-9.3 3.7h-1.3c-3.8 0-6.7-2.8-8.5-8.4-.2-.2-.2-1.1-.2-2.5v-4.7c0-1.6.3-3.3.9-5.3h-.6c-1 2.6-5.2 7.1-12.7 13.7-2.6 2.4-6.2 4.6-10.7 6.6 0 .7-4.7 1.3-14 1.6-6.2-1.9-10.4-4.4-12.5-7.5-1.5 0-3.5-4-5.9-11.9 0-1.2-.1-3.1-.3-5.6.4-.8.6-1.6.6-2.1l-.3-.6c1.1-7.3 3.2-13.5 6.2-18.7 2.6-4.7 5.7-9 9.3-12.8 4.2-4.3 8.8-8 13.8-10.9 11.4-6.6 21.6-10.2 30.4-11.2zm-50.3 54.9c0 .7-.1 1.3-.3 1.6.6 3.5.9 5.6.9 6.2h.3v-1.9c-.2-3.3-.3-5.2-.3-5.9h-.6zm1-18.7l-.3 1.2v.3h.3l.3-1.2v-.3h-.3zm1.2 28.7l-.6-.3c0 .2-.1.3-.3.3l.3.6v.3l-.3 3.1c1.7 2.3 2.6 3.4 2.8 3.4h.3v-.6c-.4-.6-.8-1.6-1.3-3.2 0-.8.5-1.3 1.6-1.3-.8-.9-1.3-2-1.3-3.1h-.3l-.9.8zm-.6-14l1.3.9c1.3-6.8 3.2-12.1 5.9-15.9l.3-1.6c-5 5.4-7.5 10.9-7.5 16.6zm5.3 24v.9c.3.8 1.2 1.3 2.8 1.3l.3-.6c-1.7-1.1-2.8-1.6-3.1-1.6zm1.9-45.9h.3l10.6-11.9v-.3c-3 1.4-6.5 5-10.6 10.9 0 .5-.1 1-.3 1.3z"/>
  <path class="st0" d="M334.6 120.3l2.1.3c.5 0 1-.1 1.3-.3 10.7 0 21 2.4 30.8 7.2 1.6 1.6 3.9 3.1 6.9 4.4 4.3 3.5 6.8 6.5 7.5 8.9 3.4 4.9 5.1 10 5.1 15.4 0 6.2-2.4 11.4-7.2 15.7-1.7 2-4.4 3.5-8.2 4.4-1.9 0-3.3-.7-4.1-2.1v-.6c0-.9 2.4-1.8 7.2-2.8 4.1-3.7 6.5-6.9 7.2-9.6 0-.3-.1-.6-.3-1 0-.3.1-1.4.3-3.4 0-4.2-.8-7.6-2.4-10.3-1.7-4.6-6.4-9.3-14.1-14-6.1-3.4-12.8-5.3-20.2-5.9 0-.2-.8-.3-2.4-.3h-3.8c-8.1 0-15.1 1.6-20.8 4.7-7.9 3.3-13.3 8.1-16.1 14.4-2.1 3.7-3.1 7-3.1 9.9-.4 0-.6.6-.6 1.7v.3c0 9.8 2.4 16.6 7.2 20.6.5 1 3.1 3.4 7.8 7.2 5.1 2.6 9 4.9 11.6 6.8 5.7 2.3 15.1 4.8 28.1 7.5 2.1.8 3.1 1.4 3.1 1.7v.6c0 .8-1.3 1.4-3.8 1.7-1.2-.5-3.8-.7-7.8-.7h-5.5l-2.1-.3c-.4.2-.8.3-1.3.3-2.7-.2-4.2-.4-4.4-.6l-.7.3-1.7-.3c-4.3.4-8 .6-11 .6 0 .4-2.5 1-7.5 1.7-12 3.8-20.1 8.2-24.3 13-3.3 2.8-6.2 7-8.9 12.3-2 3.3-3.4 7.9-4.1 14v.7c.4 2.5.6 4.1.6 4.8l-.3 3c1.3 7.2 3.4 13 6.5 17.5.8 2.3 4.7 7.1 11.6 14.4.4 0 2.6 1.8 6.5 5.5 1.3 1 3.7 2.5 7.2 4.4 4.6 3.4 11.5 6.4 20.9 8.9l5.9 2.1c.2 0 .6-.1 1-.3 2.9 0 8.6.9 17.1 2.8l14.7 1.3.6-.3.7.3c1.2-.2 2.2-.3 3.1-.3.2 0 .3.1.3.3l.7-.3h7.2c7.4 0 26.2-2.7 56.4-8.2 1.6 0 8.3-1 20.2-3.1 6.4-.9 19.2-1.8 38.4-2.8.4.3.8.4 1.3.4.4-.3.8-.4 1-.4.2 0 .6.1 1 .4l1.7-.4c16.3.9 28 2 35 3.1 0 .3.7.6 2 .7l1.7-.3c2.1.7 10.6 2.6 25.6 5.8l20.6 7.5c.5.5 5.8 3.3 16.1 8.2 21.2 14.2 31.8 23.8 31.8 28.7l-12.3 8.9c-2.7 1.6-9.5 6.2-20.2 14h-.6c-1.4-.1-4.3-3.2-8.5-9.6-1.7-1.5-3.3-3.4-4.8-5.9-11.4-9.8-20.4-16.4-27-19.8-6.6-4-15.5-8.1-26.7-12.3-12.9-4.3-21.7-6.5-26.3-6.5-11.2-2.5-22.5-3.8-33.8-3.8-1.6.2-3 .3-4.1.3l-1.7-.3-.7.3-1.7-.3c-2.7.2-4.2.4-4.4.7-.2 0-.3-.1-.3-.4l-3.4.4h-5.5l-2 .3-.7-.3-23.6 1.7-2.1-.3c-1.6 0-3 .1-4.1.3-.6 0-1.5-.1-2.8-.3-14 .5-26.6.7-37.6.7v-.4l-.6.4h-1.7c-18.1-1.8-31.9-4-41.4-6.5-.2 0-5.8-1.7-16.8-5.1-.5 0-1.3-.5-2.4-1.4-5.4-1.3-12.4-4.7-21.2-10.2-6.3-2.7-13.2-7.9-20.9-15.4 0-.5-2.7-3.8-8.2-9.9-4.3-9-6.5-14-6.5-15.1 0-.7-.3-2.5-1-5.5.2-2.5.3-4.6.3-6.5h.4l-.4-.7c.4-4.7 2.3-10 5.9-16.1 2.7-4.5 6.5-8.9 11.3-13 4.8-5.1 14.7-9.2 29.7-12.3 5.6-.9 8.9-1.3 9.9-1.3 1.5 0 5.5.2 11.9.7l2.1-.4v-.3c-.8 0-3.4-1-7.8-3.1-11.5-4.7-20.4-10-26.7-16.1-2.1-2.3-3.1-3.7-3.1-4.1-2.6-3.5-4.5-7.5-5.9-11.9l-1.3-7.2c1.9-8.5 4.7-14.6 8.5-18.1 9.9-8.4 16.9-12.7 21.2-12.7 7.8-2.2 15.5-3.4 22.7-3.4zM261.1 243c0 .5-.1.7-.3.7.3 2.8.9 5.9 2.1 9.3l-.4 1.7 4.1 8.9c1.4 1.3 2.1 2.3 2.1 3.1h.7v-.4c-5.2-13-7.8-20.8-7.8-23.2h-.5zm4.1-7.1v1.3h.3c0-.5.1-1 .4-1.3h-.7zm.3-9v.7h.4c.7-.1 1.8-1.8 3.1-5.1-.3 0-1.4 1.5-3.5 4.4zm1.7 17.1c0 .8-.4 1.8-1.3 2.8.9 3 1.6 4.4 2.1 4.4l.3-1.7c-.2-3.6-.6-5.5-1.1-5.5zm7.2-19.4c.9 0 2.4-2.1 4.4-6.2-2.9 2.4-4.4 4.4-4.4 6.2zm4.4-10c.7 1 1 1.9 1 2.8.5 0 3.3-3 8.5-8.9.7 0 1.4-.6 2.1-1.7h-.3c-3.8 1.7-7.6 4.3-11.3 7.8zm9.9-61.8c-.2 1.5-.6 2.7-1 3.7.3 1.2.7 1.7 1 1.7 0-1.7.2-3.6.7-5.5h-.7zm-.3 5.7l-.3 1.4c.2 1.2.3 2.1.3 2.7h.3v-4.1h-.3zm1-6.5h1l1.3-4.4c-1.2 1.4-1.9 2.9-2.3 4.4zm5.2 1.4c0 .9-.6 1.5-1.7 1.7-.2 2.3-.3 4-.3 5.1v2.4c1.3 4.7 2.6 7.8 4.1 9.3-1.2-5.7-1.7-9.2-1.7-10.6v-4.1c0-.5.1-1 .4-1.3-.3-.4-.4-.9-.4-1.4.3-.4.4-.8.4-1h-.8zm2.7 20.9v.4c.2.4.3.8.3 1h.7c-.3-1-.6-1.4-1-1.4zm4.1-39.7v.6c.1.5.3.7.7.7.4 0 .8-.7 1.3-2.1h-.3c-.6.6-1.1.8-1.7.8zM419.1 309c0-.3-.3-.7-1-1-.4.2-.9.3-1.3.3v-.3c-3.8.5-7.2 1.3-10.3 2.4-.3 0-.6-.1-1-.3-3.1.7-5.2 1-6.5 1v.3h3.7c3.1 0 14.7-1.4 34.9-4.1 10.1-.9 15.7-1.3 16.8-1.3v-.3h-3.1c-7.9-.1-18.6 1.1-32.2 3.3zm29.7.3v.4c.7 0 1 .1 1 .3l6.5-.7v-.3h-1.7c-.5 0-1 .1-1.4.3-.4-.2-.8-.3-1-.3l-3.4.3zm8.2-.3v.3h2.1l.7-.3.6.3c.3 0 .6-.1 1-.3l1.3.3c2.3-.1 3.5-.3 3.5-.6 2.5.4 4.7.6 6.8.6.5 0 1.7-.1 3.8-.3 2.5.5 5.3.7 8.5.7h3.7v-.4c-6.3-.7-12.8-1-19.5-1h-1c-1.3 0-3.1.1-5.5.4-.3 0-.4-.1-.4-.4-2.9.5-4.8.7-5.6.7zm23-9.2h-.4v.7l3.5-.4h2.7c1.8 0 4 .1 6.5.4l.7-.4c.4.3.9.4 1.3.4h.4v-1c-.5 0-.7-.1-.7-.3-.3 0-.6.1-1 .3l-2.4-.3c-4.2.4-7.8.6-10.6.6zm11.6 9.9v.3c5.1 0 15.4 2.2 31.1 6.5v-.3l-.3-.7c.3-1.4 1.6-2.1 4.1-2.1v-.3c-7.2-2.1-11.5-3.1-13-3.1h-.3l.7 1c0 .7-.5 1-1.4 1-.8 0-7.4-.8-19.8-2.4h-1.1zm14.7-8.2v.3c22.2 4.1 36.3 7.9 42.4 11.3h1.7l-2.4-1.7c0-.7.3-1.5 1-2.4-11.1-3.2-20-4.8-26.6-4.8 0-1.2-4.2-2-12.7-2.4-1.3-.2-2.3-.3-3.1-.3h-.3zm20.5 12v.3l4.4 1.4v-.7l-4.1-1h-.3zm16 .3c.1.9 2.3 2.2 6.9 3.8h.3v-.3c-.6 0-1.4-.9-2.4-2.8-2.4-.5-4-.7-4.8-.7zm8.6-.7v.3c.3 0 1.3.7 3.1 2.1l1.4-.3c.8.4 1.7.6 2.7.6 0-.6-2.3-1.5-6.8-2.7h-.4zm7.2 14v.3l1.4.4c0-.5-.3-.7-1-.7h-.4zm.7-19.1c0 .3 3.3 1.8 9.9 4.4l7.5 1.7h.4v-.4c-5.4-1.9-11.3-3.9-17.8-5.7zm1.3 20.2v.3c.4 0 .8.2 1.3.7h.4v-.7c-.5 0-1-.1-1.4-.3h-.3zm1.8-7.5v.3c9 3.9 16.8 8.5 23.2 13.7l18.4 15.1h.4c0-.6.4-.9 1.3-1v-.4c-9.9-8.8-18.2-15.1-25-18.8-7.8-4.4-13.8-7.4-18.1-8.9h-.2zm.3 8.5c0 .4.7.8 2.1 1.3h.3v-.3c-1.4-.7-2.2-1-2.4-1zm12.3 3.1c0 .4 2.3 2.1 6.8 5.1 7.2 5.6 11.3 8.5 12.3 8.9h.3v-.3c-.4 0-5.4-4-15-11.9-.5 0-1.6-.6-3.1-1.7H575zm9.3-8.6v.3c3.7 1.9 8 4.5 12.7 7.5h.3l1.7-1.3h.4c.6 0 1.9.3 4.1 1-6.6-5-10.8-7.5-12.3-7.5.5.7.7 1.4.7 2.1l-1 .6-6.2-2.7h-.4zm9.1 27c1.2 1.2 2.3 2.9 3.5 5.1v.7l-.7 1c0 .3.3.7 1 1 .3 0 1.3-1 3.1-3.1-3.9-3.1-6.2-4.7-6.9-4.7zm4.9-13.6c.3.6 4 3.6 10.9 9.2h1c.5 0 .7-.2.7-.6-.5-.7-4.6-3.5-12.3-8.5h-.3z"/>
  <path class="st0" d="M369.1 212.1c4.5.8 7.9 1.9 10 3.2 2.2.9 3.8 2.2 4.7 3.8 1.2 2 1.7 3.2 1.7 3.5-.2 1.2-.5 1.8-.9 1.8h-1.4c-3.1-4.1-6.1-6.6-9.1-7.4 0-.5-1.6-.9-4.7-1.2-3.7 1.1-5.5 3.3-5.5 6.5 0 4.6 2.6 8.4 7.9 11.2 1.2 1.3 3.5 2.6 6.7 3.8 0 .3 2.3 2.1 7 5.3.3 0 2.9 2.8 7.7 8.5 2.2 4.9 3.2 8.4 3.2 10.5l-.3.6c.4.7.6 1.8.6 3.2 0 4.9-1.7 10.6-5.1 17.3l.6.2c6.8-5.2 12-10.7 15.6-16.7 2-2.5 3.7-6 5.2-10.3 2.2-5.3 3.5-9 4.1-11.2l.9-.6h.9c.2 0 .7.5 1.7 1.5-.4 2.5-.7 3.8-.9 3.8l.3.6v.6l-5.3 12.7c-2.3 4.3-6.5 9.9-12.7 17-8.9 8.8-19 13.2-30.5 13.2-5.3 0-11.7-2.2-19.1-6.5l-8-6.4c-3.3-4.5-5.1-7.8-5.5-10 .4-.9.8-1.4 1.2-1.4h.2c.3 0 1.9 2.1 5 6.4 5.6 4.9 11 7.4 16.2 7.4 0 .3 1 .5 2.9.6 3.8 0 7.5-2.2 11.2-6.5 1.7-2 2.8-4.8 3.2-8.5v-2.1c0-.5-.2-1.1-.6-1.7l.3-1.2c-1.9-5.2-5.2-10.2-10-14.9-7.4-6.4-11.3-11-11.8-13.8-1.4-2.7-2.1-5.4-2.1-8.2.2-.4.3-.7.3-.9-.2-1.1-.3-1.8-.3-2.3h-.6c-1.8 1.1-5.6 6.3-11.2 15.8l-8.9 16.1c-.6.8-1 1.2-1.2 1.2h-1.4c-.3 0-.7-.4-1.2-1.2v-.2c0-1.1 1.9-5.1 5.6-12.1 5.5-9.6 9.6-16.1 12.3-19.6 5.4-5.9 9-8.9 10.8-8.9 1.4-1.2 4.6-2 9.4-2.6h.9zm-8.8 16.2v1.2c1.4 2.9 2.5 5 3.2 6.2.5 0 .8-.7.9-2.1-2.3-1.9-3.5-3.7-3.8-5.3h-.3zm7.7 12.3v.3c.4.7.9 1.2 1.7 1.4v-.3l-1.7-1.4zm3.8 3.5v.3c.1.4.2.6.6.6h.3c-.1-.3-.4-.6-.9-.9zm.5-4.7v.3c0 .2.8.9 2.4 2.1.4 0 .6-.2.6-.6v-.2c-1.6-1.1-2.6-1.6-3-1.6zm1.2 6.2v.6c.3 0 .7.2 1.2.6h.3c-.1-.4-.6-.8-1.5-1.2zm5 7.4v.6c2.2 3.2 3.2 5.1 3.2 5.9h.6c-1-4.4-2.3-6.5-3.8-6.5zm0 30.5v.3h.3c.4-.1 1.4-1.1 2.9-3.2v-.3c-2.1 1.9-3.2 3-3.2 3.2zm12.6-13.8c-1.2.9-2.5 3.4-3.8 7.3l-1.8 3.9h.3c1.4-.4 2.6-1.9 3.8-4.4l2.1-6.5-.6-.3zm-5.3-10.3v.6c0 .5.5 1.9 1.5 4.4h.2c.4 0 .6-.2.6-.6.1-1.4-.7-2.8-2.3-4.4zm2.4-6.1v.2c.6 1 .9 1.7.9 2.1h.3v-1.4c0-.3-.3-.6-.9-.9h-.3z"/>
  <path class="st0" d="M444.7 112.7h.4c2.7 1.3 4 9.2 4 23.8l.3 1.7c-.2.3-.3 1-.3 2.1 0 .9.1 2.2.3 3.7-2 20.2-4.3 35.7-7.1 46.4l-1.7 5.8.6.4c9.5-2.7 23.3-5.8 41.4-9.2 2.3-.2 3.4-.6 3.4-1l1.3.3c5.3-.5 9.4-1.1 12.5-1.7h.4c.7 0 1 .1 1 .3l1.7-.3c15.9 0 31.5 3.2 46.8 9.5 4.3 3 6.7 4.4 7.4 4.4.9 1.5 1.3 2.5 1.3 3-.4.9-1 1.3-1.7 1.3-5.6-2.7-10.7-4.9-15.3-6.7-13.2-4.3-25.3-6.5-36.3-6.5-13 0-35.1 4.1-66.1 12.3-4.7 17.5-10.1 32.8-16 46.1-2.5 6.2-6.8 16-12.9 29.5-.3 1.7-2.2 5.4-5.8 10.8-1.3 3.6-2.9 5.5-4.7 5.5h-.6c-.5 0-.7-.2-.7-.7 0-.6.8-2.8 2.4-6.4l13.9-38.7c4.5-15.9 7.6-29.5 9.2-40.7-.3-.3-.4-1-.4-2h-.4c-4.6.9-12.1 1.7-22.4 2.4-13.1-1.6-19.7-3.1-19.7-4.4-2.2-.6-5.3-2.8-9.2-6.8-4.1-3.9-6.1-8.1-6.1-12.6-.2 0-.6-1.3-1-4 0-9 2.5-15.1 7.4-18.3 0-1.7 4.6-3.4 13.9-5.1 6.5 0 11.6 2.6 15.3 7.8l.7 2.4v.9c0 .5-.2.7-.7.7h-1c-1.3-.5-2.5-1.7-3.7-3.4-2.2-1.4-4.8-2.7-7.8-3.7h-4.1c-3.6 0-7.1 1.6-10.5 4.7-2.1 2.3-3.6 5.6-4.4 9.8v2.4c.6 4.8 1.8 9 3.8 12.6 1.8 3.7 5.3 6.7 10.4 8.9 2.3.9 6.1 1.8 11.5 2.7h3.8c.8 0 1.8.1 3 .3l2.7-.6c.3 0 .6.1 1 .3 2.2 0 8.3-.8 18.3-2.4l.3-.7c0-.5-.1-.9-.3-1.3.4-.8.6-1.7.6-2.7 0-22.1-4.2-40.4-12.5-55 3.6-4.2 11.5-11.3 23.7-21.4 5-4.4 7.8-6.5 8.7-6.5zm-22.1 29.1c1.5 0 2.7 2.7 3.8 8.1h.3v-.7c0-5.6-1-8.5-3.1-8.5-.3.1-.6.5-1 1.1zm5.5 74.3c-2.5 8.6-3.7 13.9-3.7 15.7 1.4-1.7 3.1-6.9 5.1-15.7h-1.4zm.7-53.5v1.7h.3v-1.7h-.3zm4.3-23.8v.6l.4 3.4 1.7-.3h1l-.3-3.4v-1l-1.7-.3c-.4 0-.7.4-1.1 1zm0 23.1c.3 5.7.4 9.9.4 12.6v.3c.4 0 .6-.2.6-.6.3-6 .4-10 .4-12.3h-1.4zm6.2-25.4c.6 4.7.9 7.5.9 8.5.5 0 .7-.2.7-.7v-3l-.3-2.1c0-.2.1-.3.3-.3l-.3-1.7v-1.7h-.4c-.3-.1-.6.3-.9 1zm2.7-15c.3 0 .6.1 1 .3l.3-.7v-.6h-.3c-.3 0-.6.3-1 1zm1.7 6.4v1.3h.4v-1.3h-.4z"/>
  <path class="st0" d="M492.2 212.7l1.8.3c1.4-.2 2.7-.3 4.1-.3h.6c3 .4 4.7.6 5 .6h1.9c5.6 2.7 9.6 5.5 11.9 8.4 2.7 5.1 4 10.1 4 15 0 6.2-2.6 12.1-7.8 17.8-3 2.9-5.9 4.3-8.7 4.3l-.6-.9v-.6c8.1-5.6 12.2-13.2 12.2-22.8-.9-5-2.3-8.6-4.1-10.9-4.7-4-9-5.9-12.7-5.9H497c-9.2 0-18.8 5.1-29 15.3-9.4 10.1-14.9 18.8-16.5 26.3-.6 1.4-1.4 3.9-2.2 7.5l.3.6c-.4 1.8-.6 2.8-.6 3.2 0 6 2.7 10.6 8.1 14.1l3.7 1.2c5.2 0 9.8-1.9 13.8-5.6 4.7-3.6 8.8-8.1 12.2-13.4 3.5-4.5 6.4-9.7 8.7-15.7 4.8-12.1 7.2-19.8 7.2-23.1l.9-.6c1.1 0 1.9.5 2.5 1.6 0 6.3-3.1 16.5-9.3 30.6-2.7 9-4 14.4-4 16.2v6.2c1.2 4.8 3 7.2 5.6 7.2 4-.8 8.3-3.8 12.8-8.8 6.3-6.6 10.6-11.7 12.7-15.3 6.1-8.3 9.1-12.7 9.1-13.1 1.5-2.5 2.9-3.7 4-3.7 1.1.6 1.6 1.2 1.6 1.8-4 7.5-9 15.2-15.3 23.1-8 9.8-13.3 15.1-16 16-3.2 2.5-6.3 3.7-9.3 3.7h-1.3c-3.9 0-6.7-2.8-8.5-8.4-.2-.2-.2-1.1-.2-2.5v-4.7c0-1.6.3-3.3.9-5.3h-.6c-1 2.6-5.2 7.1-12.7 13.7-2.6 2.4-6.2 4.6-10.7 6.6 0 .7-4.7 1.3-14 1.6-6.2-1.9-10.4-4.4-12.5-7.5-1.5 0-3.5-4-5.9-11.9 0-1.2-.1-3.1-.3-5.6.4-.8.6-1.6.6-2.1l-.3-.6c1.1-7.3 3.2-13.5 6.2-18.7 2.6-4.7 5.7-9 9.3-12.8 4.2-4.3 8.8-8 13.8-10.9 11.4-6.6 21.6-10.2 30.4-11.2zm-50.3 54.9c0 .7-.1 1.3-.3 1.6.6 3.5.9 5.6.9 6.2h.3v-1.9c-.2-3.3-.3-5.2-.3-5.9h-.6zm1-18.7l-.3 1.2v.3h.3l.3-1.2v-.3h-.3zm1.2 28.7l-.6-.3c0 .2-.1.3-.3.3l.3.6v.3l-.3 3.1c1.7 2.3 2.6 3.4 2.8 3.4h.3v-.6c-.4-.6-.8-1.6-1.3-3.2 0-.8.5-1.3 1.6-1.3-.8-.9-1.3-2-1.3-3.1h-.3l-.9.8zm-.6-14l1.3.9c1.3-6.8 3.2-12.1 5.9-15.9l.3-1.6c-5 5.4-7.5 10.9-7.5 16.6zm5.3 24v.9c.3.8 1.2 1.3 2.8 1.3l.3-.6c-1.7-1.1-2.8-1.6-3.1-1.6zm1.9-45.9h.3l10.6-11.9v-.3c-3 1.4-6.5 5-10.6 10.9 0 .5-.1 1-.3 1.3z"/>
  <path class="st0" d="M587.3 213.2h2c9.4 1 14.2 2.3 14.2 3.9 4 1.9 6.7 4.5 8 7.7.9 3.1 1.3 4.9 1.3 5.5-.3 4.2-1.6 8.3-3.9 12.5-4 4.1-7 6.2-9 6.2 0 .4-.6.6-1.7.6-.4 0-.6-.2-.6-.6v-1.3c6.4-4.7 9.6-9.3 9.6-13.5v-3.8c0-2-1.7-4.9-5.1-8.7-2.8-1.5-6.5-2.3-10.9-2.3-6 0-11.8 1.6-17.4 4.8-3 0-8.7 5.7-17.3 17.1-3 6.4-4.5 11.5-4.5 15.1 0 12 2.8 19.7 8.3 23.2 4.5 3.4 9.4 5.1 14.6 5.1 0 .2 1.6.4 4.8.6 4.8 0 11.2-1.8 19-5.5 3.3-2 7.9-5.7 13.8-11.2 0-.3 1.1-1.6 3.2-3.9 2.2-3.2 3.8-5.9 4.8-8.1.3 0 1.6-1.8 3.9-5.5l1.6-.3c.9.3 1.3.6 1.3.9v.9c-2.6 6.9-4.6 10.6-5.9 11-1.2 2.4-2.6 4.3-4.2 5.8-5 5.8-9.2 9.6-12.5 11.5-5.7 4.4-12.2 7.9-19.6 10.4-3 1.1-7.8 1.8-14.5 2.2-9.9 0-18.7-3.1-26.4-9.3-3.4-3.6-5.1-5.9-5.1-7-1.1-1.1-2.5-4.9-4.2-11.6 0-.2.1-.3.3-.3l-.6-2.9.3-2.2c0-.2-.1-.5-.3-.9 0-3.6 2.2-10.2 6.7-19.6 5.7-8.1 12.1-14.2 19-18.3 3.2-2.1 8.2-4.3 15.2-6.5-.1-.8 3.9-1.3 11.8-1.7zM540 256.6v.3c2.2 0 3.2 1.9 3.2 5.8v.7h.3c0-2.1.4-6.5 1.3-13.2l-2.8 5.5c-1.4.2-2 .5-2 .9zm5.1 14.2v.6c0 2.3.9 3.6 2.6 3.9v-.6c-1.1-1.9-1.7-3.2-1.7-3.9h-.9zm2-6.8v5.1c0 .3.6.8 1.9 1.6h.3v-.6c-1.1-3.5-1.6-5.6-1.6-6.1h-.6zm5.8 14.2v.6c0 .6.8 1.5 2.5 2.5h.7c0-.2-1.1-1.2-3.2-3.1zm1.5-44.8v.6l.3 1.7h.6c0-.5 1.7-2.8 5.2-6.8 2.5-2.3 3.8-3.6 3.8-3.8h-.3c-2.9 1.8-6.1 4.6-9.6 8.3z"/>
  <path class="st0" d="M638.3 213h1.3c5.9.8 8.9 3.7 8.9 8.5.2 1.4.3 3 .3 4.7-.2 4.5-3.9 15.8-11.2 34.1-4.5 10-6.9 17.3-7.2 22.1.5 4.3 2.1 6.5 4.8 6.5 2.7 0 6.8-3.5 12.3-10.5 5.1-5.1 9.6-11.9 13.6-20.5.7-.6 2.2-3.1 4.4-7.5h1.7c.3 0 .9.6 1.7 1.7 0 1.2-1.7 4.9-5.1 10.9-2.4 4.7-6.2 10.3-11.2 16.7-6.3 9.1-11.7 13.6-16.1 13.6-3.1.5-5.2.7-6.5.7-3.7-.3-7.2-1.9-10.6-4.7-1.8-3.3-2.7-6.9-2.7-10.9 0-6 2.1-14.6 6.2-25.6 3-6.6 5.7-11.9 8.1-16 3.8-7.9 5.8-13 5.8-15.3 0-1.7-.6-2.9-1.7-3.4-3 .9-4.9 1.7-5.8 2.4h-.3c-1.1-.7-1.7-1.2-1.7-1.3 3.4-4.1 7-6.2 11-6.2zm-12.4 51.2l-1.7-.4v1.7c0 .5-.3 1.6-1 3.4.2 1.7.3 3.7.3 5.8h.4c1.6-5.6 3-9.4 4-11.5v-1c0-.1-.7.6-2 2zm4.1-15c-.9 1.7-1.3 2.8-1.3 3.4v.3h.3c.9-2.1 1.3-3.2 1.3-3.4v-.3h-.3zm7.2-7.2c-2.1 5.3-3.1 8-3.1 8.2.7 0 1.9-2.6 3.4-7.8v-.4h-.3zm5.8-20.1c0 .8-.3 3.1-1 6.8.2 0 .3.1.3.4.7 0 1.3-1.4 1.7-4.1-.2-2.1-.6-3.1-1-3.1z"/>
  <path class="st0" d="M708.9 213.4l2 .3h1.3c15.2 0 25.4 5.6 30.6 16.8 1.2 3.3 1.7 5.5 1.7 6.4v.3c0 .2-.1.3-.4.3l.4.7c0 7.6-2.7 14.2-8.1 19.5 0 .4-1.6 2-4.7 5-2.7 7.3-5.8 12.4-9.1 15.5-3.1 3.7-7.4 7.2-12.7 10.4h.6c8.3-1.7 13.4-3.4 15.2-5.1 5.5-3.8 8.4-5.7 8.7-5.7 6.1-6.2 10.3-11.4 12.5-15.5 3.8-6.5 6.5-9.7 8.1-9.7h.6c.5.1.7.3.7.6-1.8 7.2-6.4 14.8-13.8 22.9-5.6 5.6-11.1 9.8-16.4 12.4-7.2 3.6-15.9 5.4-25.9 5.4h-.3c-.2 0-1.1-.2-2.7-.7h-3.4c-2.3-.3-6.7-2.2-13.1-5.7-5.7-4.8-9.2-8.6-10.4-11.4-1.1 0-2.6-3.4-4.7-10.1-.9-5-1.3-8-1.3-9.1 0-8.2 2.7-16.5 8.1-24.9 7.5-8.8 12.9-13.1 16.1-13.1 2.2-1.7 7.1-3.4 14.8-5 3.5 0 5.4-.3 5.6-.5zM670.5 247c-.9 4-1.3 7.8-1.3 11.5v.7c0 .9.1 2.1.3 3.6-.2.4-.3.9-.3 1.3l.6.4v-.7c0-4.9.4-10.5 1.3-16.8h-.6zm4.4 1.8l-1 7c.7 1.1 1 1.7 1 2.1h.7c0-2 .3-4.8.9-8.5-.6-.4-1.2-.6-1.6-.6zm1 27.2v1c1.6 2.2 3.4 4.1 5.4 5.7h.3v-.3c-.9-1.1-2.2-3.3-4-6.7h-.3c-.5.2-.9.3-1.4.3zm1.7-38.4c0 .5-.4 1.3-1.3 2.4v1c.3 0 1-1.1 2.1-3.4h-.8zm2.7 21.6c0 7.4 2.9 14.7 8.8 21.8 3.3 3.4 6.2 5.4 8.7 6.1 6.6 0 13.4-3.4 20.2-10.1 2.3-2.7 4.7-6.3 7-10.8h-.3c-2.5.7-5.5 1.2-9.1 1.7-6.8-.8-11.7-2.3-14.8-4.3-3.8-3.4-6.2-7.2-7.1-11.5-.2 0-.3-.2-.3-.6 0-8.3.8-12.5 2.4-12.5 2.4-3.1 4.4-4.7 6-4.7h1c.3 0 .7.3 1 1v.3c0 1.1-1.3 2.9-4 5.4-.9 1.9-1.5 4.7-1.7 8.4 0 4.2 1.8 7.6 5.4 10.1 0 1.1 3.6 2.2 10.8 3.3 9.4-.9 14.2-3.2 14.2-6.7 0-2.2.1-3.6.3-4.3 0-7.5-2.4-13.9-7.1-19.2-4.2-3.4-8.5-5.8-13-7.4-2.3-.2-3.4-.7-3.4-1.3v-1c0-.6 1-1.1 3-1.3 7.1 0 14 3.9 20.9 11.8 3.2 7.2 4.9 13.4 5.1 18.8-.2 0-.3.1-.3.3h.9c0-.4 1.1-2.5 3.4-6.3.7-1.3 1-2.5 1-3.7 0-8.4-1.1-13.2-3.4-14.5-5-6.1-11.4-9.1-19.1-9.1-6.6 0-13.1 1.9-19.5 5.7-8.4 6.6-13.7 14.5-15.8 23.6-.7 3.5-1 7.3-1.2 11zm2.3-31v.7h.3c.8-.5 1.6-1.4 2.4-2.7h-.3c-1.6 1.1-2.4 1.7-2.4 2z"/>
  <path class="st0" d="M810.9 213.1c7.8 1.4 13.5 3.7 17.2 6.7 1.3 0 3.1 2.8 5.6 8.5 1.2 3 1.7 5.9 1.7 8.8v3.9l.4 2.1c-.7 5.3-2.2 10.7-4.3 16.2-7 12.8-10.5 21.1-10.5 25v1.7c0 .4.5.8 1.4 1.4h1.3c2.7 0 6.9-3.1 12.3-9.2 5.9-8.6 10.5-16.3 14.1-22.9.8-.7 1.4-1.1 1.8-1.1 1.1.5 1.6.9 1.7 1.4v.7c0 2-2.8 7.9-8.5 17.6-2.8 4.4-6.5 9.1-11.2 14.1-6.1 4.2-10.1 6.3-12 6.3H820c-3.8 0-6.6-2-8.5-6-1.2-3.5-1.7-5.8-1.7-7v-4.2c0-.8.1-1.9.4-3.2 0-.3-.1-.4-.4-.4 0-4.9 2.6-15.8 7.7-32.7.3-.9.4-1.8.4-2.8v-7.4c0-2.6-1.7-5.2-5-7.8-1.2-.9-3.5-1.7-7-2.1-7.8 0-14.5 3.9-20.1 11.6-.7.1-2.4 3-5.2 8.8-5 11.2-10.1 23.8-15.5 37.7l-4.3 7.4c-.9 2.1-3.2 3.9-7 5.2l-1.7.4c-3.6-.3-5.6-1.8-6-4.6h.3c0-.3-.1-.4-.3-.4 0-.2.1-.6.3-1l-.3-1.7c0-3.7 1.5-12.3 4.6-25.7l9.9-27.1c.9-1.2 2.2-4.2 3.9-8.9 1.7-3.1 3.3-4.6 4.6-4.6.9.4 1.3.7 1.3 1.1 0 .6-3.2 9.3-9.5 26l-6.7 22.5c-1.2 7-1.7 13.1-1.7 18.3l1.1.7h.3c.8-.2 3.2-3.7 7-10.6 0-.5 2.5-6.5 7.4-18 0-.6 2.2-6.1 6.6-16.5.6-.6 2-3.5 4.3-8.5 3.3-6.1 6.6-10.3 9.8-12.7 2.5-2.7 7.8-5.2 15.9-7.4h6zm4.5 58.4v1.8l.4 2.5h.3c.5-1.5.7-2.6.7-3.2-.5 0-.7-.4-.7-1.1h-.7zm8.5-38.3l.4 2.5c0 4-.9 8.2-2.8 12.7v.4h.7c0-1.1 1.3-3.8 3.9-8.1 0-.3-.5-2.8-1.4-7.4h-.8zm6 11.2c0 3.7-1.4 5.9-4.2 6.4-.5-.3-.8-.4-1.1-.4-1.8 6.1-2.8 9.5-2.8 10.2 2.7-5.2 4.8-8.3 6.3-9.5.7 0 1.4-1.6 2.1-4.9v-1.8h-.3zm-1-11.5v.6c.7 2.7 1 4.9 1 6.4h.7v-1.1c0-.6-.5-2.6-1.4-5.9h-.3zm1 8.7v1.4h.7v-1.4h-.7z"/>
  <g>
    <path class="st0" d="M808.2 65.4l-3 3.9c-1.7-2.6-4.5-6.2-8.2-11-3.7-4.7-7.7-9.8-11.8-15.3-4.2-5.4-8-10.6-11.6-15.5-3.6-4.9-6.1-8.6-7.5-11.2-1.2 4.9-1.9 9-2.4 12.5-.4 3.4-.6 5.9-.6 7.3v.9c.9 2.9 3.6 5.7 8.2 8.6-1.2.3-1.7.7-1.7 1.3 0 .9.3 1.9.9 3 .6 1.1.9 1.9.9 2.1v1.7c0 2-.6 4.7-1.7 8s-2.5 6.7-4.1 10.1c-1.6 3.4-2.9 6.7-4.1 9.7-1.1 3-1.7 5.1-1.7 6.2 0 1.2.1 2.5.4 4.1.3 1.6.7 2.9 1.3 4.1l-2.1 1.7c-1.2-1.1-2-3.1-2.6-5.8-.6-2.7-1.4-4.1-2.6-4.1-.6 0-1.6.6-3 1.7 0-3.2 2.3-8.9 6.9-17.2.9-.3 1.7-.9 2.6-1.7.9-.9 1.4-2.1 1.7-3.9l2.2-7.7-1.3-1.7c-2 1.7-4.4 4.5-7.1 8.2-2.7 3.7-5.4 7.6-8 11.6-2.6 4-4.9 7.7-7.1 11-2.2 3.3-3.8 5.5-4.9 6.7 2.6 4.3 5.9 9.1 9.9 14.4 4 5.3 8.4 11.2 13.1 17.6 4.7 6.5 9.8 13.7 15.1 21.7 5.3 8 10.5 16.9 15.7 26.7-3.4 3.4-5.9 5.2-7.3 5.2-.3 0-.7-.1-1.3-.4-.6-.3-1-.7-1.3-1.3-1.2-5.4-6.8-16.3-17-32.5s-25.3-38.1-45.4-65.6h-5.2V74c-7.5-9.7-14.4-19.5-20.9-29.3-6.4-9.7-12.4-19.6-17.9-29.7 0 .6-.6 2.3-1.9 5.2-1.3 2.9-2.7 6.2-4.1 9.9-1.4 3.7-2.8 7.5-4.1 11.4-1.3 3.9-1.9 7.1-1.9 9.7v2.6h3.9c-1.4 2.6-2.2 5.2-2.2 7.7 0 1.1.5 3.1 1.5 5.8 1 2.7 2.2 5.6 3.4 8.6 1.3 3 2.5 5.9 3.6 8.6 1.1 2.7 1.7 4.8 1.7 6.2 0 2.3-.8 5.2-2.4 8.8-1.6 3.6-3.4 7.2-5.4 11-2 3.7-3.8 7.3-5.4 10.8-1.6 3.4-2.4 6-2.4 7.7 0 3.2 1.7 6 5.2 8.6v2.2c0 7.7-2.4 16-7.1 24.7-4.7 8.8-9.1 16.7-13.1 23.9h-3c0-1.1 1.4-3.3 4.1-6.5 2.7-3.1 4.1-5.9 4.1-8.2v-.4c6.3-5.4 10.3-15.6 12-30.6-.9-.9-1.6-1.6-2.1-2.2-.6-.6-1.6-.9-3-.9h-6.9c-2.6 2.3-5.9 5.7-9.9 10.3-4 4.6-8 9.3-12 14.2-4 4.9-7.7 9.5-11 13.8-3.3 4.3-5.7 7.2-7.1 8.6.3-3.2 3-7.7 8.2-13.8 2.6-3.2 4.2-5.3 4.7-6.5.6-1.1.9-1.9 1.1-2.4.1-.4.3-.9.4-1.5.1-.6 1.1-1.9 2.8-4.1 1.7-2.2 4.5-5.5 8.4-10.1 3.9-4.6 9.5-11 17-19.4 9.7-10 14.6-20.5 14.6-31.4v-1.7c-1.1 2.6-3.6 5.9-7.3 9.9-3.7 4-7.6 8.1-11.6 12.3-4 4.2-7.8 8.2-11.4 12-3.6 3.9-6 7.1-7.1 9.7l-3.4 3c7.8-9.5 15.7-19.5 23.9-30.1 8.2-10.6 14.3-20.7 18.3-30.1-1.4-2.6-3.6-5.4-6.5-8.6-4.9 1.4-10.6 7.6-17.2 18.5-2 0-3.7.7-4.9 2.2-1.3 1.4-2.6 3.3-3.9 5.6-1.3 2.3-2.9 4.9-4.7 7.7-1.9 2.9-4.5 5.6-8 8.2 3.1-2.9 7.5-9.5 12.9-19.8 2.6-4.6 5.2-8.2 7.7-11 2.6-2.7 4.9-5.2 6.9-7.5s3.7-4.6 5-6.9c1.3-2.3 1.9-5.3 1.9-9 0-2-.9-4.3-2.6-6.9 1.1-.3 1.7-1.7 1.7-4.3l-1.7-2.2c-9.2 10.3-17.9 20.6-26 30.8-8.2 10.2-17.1 21.7-26.9 34.6-3.4 5.2-6.5 9.5-9.2 12.9-2.7 3.4-5.5 6.7-8.4 9.9-2.9 3.2-5.9 6.5-9 9.9-3.2 3.4-7 7.9-11.6 13.3V158c0-4.3 1.7-7.7 5.2-10.3h.9c1.1 0 2.2-.5 3-1.5.9-1 1.6-2.1 2.4-3.2.7-1.1 1.4-2.3 2.2-3.4.7-1.1 1.4-1.9 1.9-2.2l33.1-40c12-15.5 22.4-30.1 31-43.9 2-1.7 4.3-4 6.9-6.9 2.6-2.9 4.9-5.7 7.1-8.6 2.2-2.9 3.9-5.4 5.4-7.7 1.4-2.3 2.2-3.7 2.2-4.3 0-.9-.6-1.9-1.7-3-4.9 4-10.9 9.8-18.1 17.2-7.2 7.5-14.3 15.1-21.3 22.8-7 7.7-13.4 14.8-19.2 21.3-5.7 6.5-9.8 10.8-12 13.1-.3 1.4-1.4 3.2-3.2 5.2-1.9 2-3.9 4.2-6 6.5-2.2 2.3-4.2 4.5-6 6.7-1.9 2.2-2.9 3.9-3.2 5.4H569c-5.7 5.7-12.5 13.3-20.2 22.6-7.7 9.3-16.6 20.4-26.7 33.3h-5.2c.9-5.2 3-10.3 6.5-15.5 3.4-5.2 7.5-10.3 12.3-15.3 4.7-5 9.7-9.9 14.8-14.6 5.2-4.7 9.9-9.4 14.2-14h3c2.3-2 5-4.8 8.2-8.4 3.2-3.6 6.6-8.1 10.3-13.6-1.1-4.3-3.4-9.3-6.9-15.1-3.4-5.7-7-11.3-10.8-16.6-3.7-5.3-7.2-10-10.3-14.2-3.2-4.2-5-7-5.6-8.4-6.9 9.2-10.3 15.9-10.3 20.2 0 2.3 1 5.8 3 10.5s3 8.7 3 11.8c0 2.6-.9 6.3-2.6 11.2-1.7 4.9-3.7 9.8-5.8 14.6-2.2 4.9-4.2 9.3-6.2 13.3s-3.2 6.6-3.4 7.7h-3c0-2.9.6-4.4 1.7-4.7l-1.7-2.2c-3.2 2.3-6.6 5.5-10.3 9.5-3.7 4-7.6 9.3-11.6 15.9-.6-.6-.9-1.3-.9-2.2 0-1.4 1.1-3.4 3.2-6 2.2-2.6 3.2-4.9 3.2-6.9 0-.3 1.6-1.9 4.7-5 3.2-3 6.7-6.7 10.5-11 3.9-4.3 7.4-8.9 10.5-13.8 3.2-4.9 4.7-9 4.7-12.5 0-2.3-.7-5.6-2.1-9.9-.6 1.2-2.4 3.5-5.6 7.1-3.2 3.6-6.5 7.6-10.1 12-3.6 4.5-7 9.1-10.3 14-3.3 4.9-5.4 9-6.2 12.5h-5.2c2.9-8 8.5-17.4 16.8-28L538.9 74l-3.9-4.7c-1.4.9-4 3.4-7.8 7.5-3.7 4.2-7.8 8.7-12.3 13.6-4.4 4.9-8.8 9.5-13.1 13.8-4.3 4.3-7.9 7.2-10.8 8.6-.6.6-1.7 2.4-3.2 5.6-1.6 3.2-3.4 4.7-5.4 4.7l-3-1.7c8.3-7.5 15.4-14.4 21.3-20.9 5.9-6.5 12.3-13.8 19.1-22.2 6.9-8.3 13.2-17.1 18.9-26.2l-2.2-1.3c-3.2 3.4-8 8.2-14.4 14.2-6.5 6-13.3 12.3-20.4 18.7-7.2 6.5-14 12.6-20.4 18.3-6.4 5.7-11 9.9-13.6 12.5-1.1-1.1-2.3-1.7-3.4-1.7 0-4.9 6.2-11.6 18.5-20.2 1.1-2 3.5-4.6 7.1-7.7 3.6-3.2 7.5-6.4 11.6-9.7 4.2-3.3 8-6.4 11.6-9.3 3.6-2.9 5.9-5.2 7.1-6.9.6-1.7 2.1-3.9 4.5-6.5s5.2-5.3 8.2-8.2c3-2.9 5.9-5.6 8.6-8.2 2.7-2.6 4.5-4.6 5.4-6 1.7 1.4 3.8 3 6.2 4.7 2.4 1.7 5.4 4 8.8 6.9.6 6 4.4 12.2 11.6 18.5.3.3 1.1 1.7 2.6 4.1 1.4 2.4 3.1 5.1 5.2 8 2 2.9 4.2 5.6 6.5 8.2 2.3 2.6 4.3 4.3 6 5.2L617 62.5c9.2-9.2 15.6-17.6 19.4-25.4 2.9-1.4 6-4.1 9.5-8 3.4-3.9 6.7-7.9 9.7-12 3-4.2 5.7-7.9 8-11.2 2.3-3.3 3.9-5.2 4.7-5.8 6.9 2.9 12.9 10.5 18.1 22.8 5.7 12.6 10.4 21 14 25.2 3.6 4.2 6.7 6.2 9.3 6.2 1.4 0 2.9-.7 4.3-2.2.9-1.4 2.9-3.5 6-6.2s6.6-5.7 10.3-8.8c3.7-3.2 7.1-6.2 10.1-9.3 3-3 4.8-5.5 5.4-7.5 1.4-.3 3.1-1.2 4.9-2.8 1.9-1.6 3.7-3.4 5.6-5.4 1.9-2 3.7-3.9 5.4-5.6 1.7-1.7 3.1-2.9 4.3-3.4 5.7 4.6 10.3 12.1 13.8 22.4 2.6 1.7 5.6 5 9 9.7 3.4 4.7 6.7 9.5 9.7 14.2 3 4.7 5.4 8.8 7.3 12.3 1.9 3.3 2.7 4.6 2.4 3.7zm-197 62.8c-.3.3-1.3 1.9-3 4.7-1.7 2.9-3.8 6.2-6.2 9.9-2.4 3.7-5.1 7.2-8 10.5-2.9 3.3-5.6 5.5-8.2 6.7l25.4-31.8zm0 28.4c-2.3 5.7-4.2 9.4-5.8 11-1.6 1.6-3.7 2.4-6.2 2.4 1.4-1.4 3.1-3.3 4.9-5.6 1.8-2.3 4.2-4.9 7.1-7.8zm8.1-8.6v.9c0 .6-.6 1.6-1.7 3h-1.3l3-3.9zM737.7 41.7c-2.6 2.3-5.6 5.4-9 9.3-3.4 3.9-7.2 8.2-11.2 13.1 1.1-1.1 2.6-2.7 4.5-4.7s3.7-4.2 5.6-6.5c1.9-2.3 3.7-4.4 5.6-6.5 1.8-1.9 3.3-3.5 4.5-4.7zm23.6 9.1c0-3.2-.7-4.9-2.1-5.2-2.6.9-5.2 3.1-8 6.7-2.7 3.6-5.2 7.3-7.5 11.2-2.3 3.9-4.2 7.3-5.6 10.3-1.4 3-2.1 4.2-2.1 3.7-3.2 0-4.9-.6-5.2-1.7.3-2.3 1.6-5.4 4.1-9.5 2.4-4 5.1-8.2 8-12.5 2.9-4.3 5.6-8.3 8.2-12 2.6-3.7 4.3-6.4 5.2-8.2l-1.7-1.7c-.3.6-3.1 4.2-8.4 10.8-5.3 6.6-13.1 16.5-23.5 29.7 1.1 2.3 2.9 4.7 5.2 7.1 2.3 2.4 5 5.1 8.2 8 2.3-4 5.5-9 9.7-15.1 4-6.1 9.2-13.3 15.5-21.6z"/>
  </g>
  <g>
    <path class="st0" d="M652.4 314.4c4.2.3 7.2.9 9.1 1.7.2.2 1.4.9 3.5 2 3.2 2.8 5.7 5.4 7.3 7.9 1.7 3 3.3 7.1 4.6 12.3l.7 4.5c-.1.2-.2.5-.2.8 0 1.1.1 2 .3 2.6-.1.4-.1.8-.1 1.1 0 .1 0 .2.1.2l-.1.8v1c-.4 4.6-.8 7.7-1.2 9.3l.2.3c-.3 1-.5 1.6-.5 2 0 .6.8 1.4 2.5 2.5.7.8 3.8 3.3 9.4 7.4 3.1 2.1 5.2 3.2 6.4 3.2.4-1.1.7-1.8.7-2l-.1-.3c.4-.5.9-1.9 1.7-4.3 2.6-6.5 6.2-13.6 10.9-21.3 3.5-5.4 6.8-9.7 9.7-12.7h.3c.2 0 .3.2.3.5 0 .6-.6 1.6-1.7 3-1.9 2.9-3.6 5.4-5.3 7.6l-4.2 8.5c-1.1 2.6-2.1 5.4-3.1 8.4 0 .1 0 .1.1.1-.3 1.2-1 4.2-2.1 9.1.1.2.1.4.1.5-.3.9-.6 2.6-.8 5 1.6.2 2.5.3 2.6.3 1.8-.2 3.4-.7 4.8-1.5 1.6-1.4 2.8-2.8 3.5-4.1.1 0 .3-.1.5-.2.7.2 1 .5 1 .7v.3c-.1 1.3-1.3 3-3.6 4.8-2.4 1.3-4.7 2-7.1 2-.2-.1-.4-.2-.7-.2h-1.2l-.7 4.6c0 .1.1.2.2.2l-.2 1.1v2c0 .8 0 1.4-.1 2 0 3.3.7 7.9 2 13.7h-.2c2 7 4.7 12 8.1 15.2 4.9 4.5 8.1 6.8 9.6 7 2.5 1.3 4.9 2 7.1 2 0 .3 2.8.7 8.4 1.3h3.8c1.1 0 2.8 0 5-.1v.1c6.4-1 12.2-2.7 17.4-5 5.6-2.3 11.4-5.1 17.4-8.2 8.2-4.1 15.6-7.4 22-9.8 1.3-.8 5-1.9 11.2-3.5 6.2-1.4 11.2-2.1 15-2.1 11.6 0 18.8 1.9 21.5 5.6v.2c-2.1 2.2-3.3 3.3-3.5 3.3-2.6 2.5-5.6 5.6-9.1 9.2l-1 .2c-5.1-1.6-8.4-2.6-9.8-2.8l-.3.1c-2.3-.8-4.9-1.1-7.8-1.1l-1 .1v-.1c-.2.1-.4.1-.5.1-5.9 0-13 1.4-21.3 4.3-1.3.5-4.2 1.6-8.8 3.1l-12.1 5c-.6 0-3.8.8-9.8 2.3l-6.3 1.3c-.1 0-.1-.1-.1-.1-5.1 1-10.2 1.5-15.4 1.5-14.3 0-27.2-5-38.6-15-3.6-3.8-5.6-6.3-6.1-7.8-2.4-4.1-3.8-7.7-4.1-10.9-.2 0-.5-1.5-1-4.5h.1l-.1-.3c-.1-2.8-.2-4.5-.2-5 0-2.1.3-4.8 1-8.1.3 0 .6-.8.8-2.5v-.3c-.1-.4-1.7-1.2-4.6-2.3-.2-.3-3.3-2.6-9.3-6.9-1.6-1.5-2.9-2.6-4-3.5h-.3c-1.9 6.8-4.8 13.4-8.6 19.9-1.2 1.4-2.2 2.9-3.1 4.5-5.8 6.3-9.5 9.4-11.1 9.4 0 .1-.1.2-.2.2-.4-.2-.7-.3-.7-.5v-.8c.2-.4 1.4-1.3 3.6-2.6 4.8-4.4 7.3-7.2 7.3-8.3.5 0 1.3-1.5 2.5-4.6.5-.7 1.6-3.5 3.1-8.3.9-2.5 1.7-6.7 2.3-12.7-4.8-3.3-9.2-5.3-13.1-5.8h-2.3c-3.4 0-6.4 1.8-9.1 5.3-.7 1-1 2.7-1 5.1 0 3.2 1.9 6.1 5.8 8.6 2.1.9 3.1 1.3 3.1 1.5-.1.6-.5.8-1.1.8h-.7c-3.7-1.1-6.2-2.6-7.6-4.6-1.5-3.2-2.3-6-2.3-8.4 1-2.5 1.6-3.8 1.8-3.8.5-1.6 2.3-3.4 5.6-5.3 1.6-.7 3.5-1.2 5.6-1.5 4.5 0 9.6 1.8 15 5.3h.3v-1.3c0-.9.1-1.6.2-2.3-.1-.5-.2-1.3-.2-2.1v-.2c0-.1.1-.1.2-.1l-.2-.3v-2l-.7-4.2h.2c-.7-3.8-1.4-6.7-2.2-8.8-1.3-3.6-3.1-6.6-5.1-9.1-5.1-4.4-9.5-6.6-13.4-6.6h-3.5c-1.9 0-4.1 1-6.5 3.1-.7 1.2-1.3 1.9-2 2.3 0 .1-.2 1.1-.5 3v1.2c0 1.5.7 3.4 2.1 5.8 1.1.7 1.7 1.2 1.7 1.7-.3.2-.7.3-1 .3-.7 0-1.7-.9-3.1-2.8-1.1-1.3-1.7-3-2-5 0-3.4.8-6.3 2.5-8.6 4.7-4 8.5-6 11.3-6 .7-.7 2-.8 4.5-.8zm-1.3 3.3v.1c1.5.1 4.2 1.1 8.1 3h.3v-.1c-.5-1.1-1.9-2-4-2.6-.2 0-1.2-.2-3-.5-.3 0-.8.1-1.4.1zm9.3.3c0 .2.6.6 1.8 1h.1v-.2c-1-.5-1.6-.8-1.9-.8zm8.3 10.1c0 .1-.1.3-.2.5l3.6 6.8c0 .1.1.1.2.1v-.1c-1.3-3.8-2.4-6.2-3.3-7.3h-.3zm2.9 11.1v.1c0 .3.1 1 .3 2.2h-.2c.3.8.6 2 .8 3.6 0 .1-.1.1-.2.1.1.2.3 1.1.5 2.5 0 .1-.1.1-.2.1l.3 2.5c0 .1 0 .1-.1.1l.1 1.2v2.5h.2c.3-3.1.6-4.6.8-4.6-.4-6.9-.9-10.4-1.5-10.4-.2.1-.4.1-.5.1h-.3zm22.8 44c-.2 1.5-.4 3.1-.5 4.8l.1.7-.1 1.1c0 .4.1 1.4.3 3l-.2.3c.8 5 2.2 9.4 4.3 13.2 0 .2.2.6.7 1.3h.1v-.3c-1.5-2.4-3-7-4.5-14.1-.1-1.8-.3-3.3-.5-4.5 0-2.7.4-4.1 1.1-4.1v-.8s-.3-.2-.8-.6zm3.2 1.4l.2.8v1c0 .6-.1 1-.2 1.2.1.6.2 1.1.2 1.5v3.3c0 1.1-.1 2.4-.2 4 .9 4.3 1.8 7.4 2.6 9.3h.3c-1-2.6-1.8-7-2.5-13.4.1-.2.1-.4.1-.5-.2-.8-.3-1.6-.3-2.5l.2-.3-.2-.3c0-.1.1-.3.2-.5 0-.1-.1-.4-.2-1l.2-2.3-.2-.3c.1-.2.2-.4.2-.7v-.9c-.1 0-.3.5-.4 1.6zm.2-12.2v.7h.1c.2 0 .5-.7.8-2.1.6 0 1-.7 1.3-2.1 0-.1-.1-.3-.2-.5 0-.3.3-1.5 1-3.8v-.2c-1 1.7-2.1 4.4-3 8zm.3 9.3l-.2.8h.3v-.8h-.1zm66.1 42.6h-.2c-.2 0-.4-.3-.5-.8h-.2c-.6.4-3.5 1.6-8.9 3.5v.1h.7c3.1-.1 8.2-1.5 15.2-4.3v-.3c-3.2 1.2-5.2 1.8-6.1 1.8zm7.5-4.1h.2c.2 0 .3-.1.3-.3h-.2c-.2 0-.3.1-.3.3zm9.4-5.3l-.1.3h.1c.2-.1.4-.2.5-.2v-.1h-.5zm.7-.2h.2c4.7-1.9 8.4-3.2 11.1-4.1v-.5c0-.2-.1-.3-.3-.3-3.5 1.5-6.1 2.6-7.8 3.5-1.6.4-2.7.9-3.2 1.4zm8.4-1.3c.1.7.2 1 .3 1 4.3-1.8 9.3-3.2 14.9-4.3 6.8-1.1 10.4-1.7 10.9-1.7-.4-.4-.7-.9-.8-1.5-.9 0-4 .6-9.4 1.7-1.3 0-6.6 1.6-15.9 4.8zm17.5-9.4v.1c5.7-1.3 9.3-2 10.7-2h6.1c.1 0 .2.1.2.2l.3-.2c1.9.1 2.8.2 2.8.3.1 0 .2 0 .2-.1 2.6.4 5.2.7 7.8.8h.1v-.1c-5.2-.8-9.1-1.2-11.7-1.2h-.8c-.2 0-.3-.2-.5-.5l.2-.3c-.1 0-.2-.1-.2-.2-4.9.6-10 1.7-15.2 3.2zm1.7 7.6v.1h1.3l.8-.1v-.3l-2.1.3zm6.6-6.9v.3h2l1-.2c.2.1.4.2.5.2.2 0 .5-.1.7-.2 2.6.1 5.2.3 8.1.7l.3-.1c4.1.7 6.4 1 7 1h.7v-.2c-.2-.9-.6-1.3-1-1.3-4.2-.4-7.7-.7-10.4-.7h-.5c-.1 0-.1-.1-.1-.1l-.3.1c-.3 0-.5-.1-.5-.1l-7.5.6zm2.5 5.1v.2c6.2.8 10.9 1.6 13.9 2.5l1.5-.1c.2 0 .8.2 2 .5 0-.3.2-.4.7-.5v-.2c0-.3-2.8-.6-8.4-1-.2 0-1.1-.3-2.6-1-1 0-1.5-.3-1.5-.8-1.4-.1-3.2 0-5.6.4zm17.8-8.6c0 .2 1.2.5 3.5.8h.3v-.2c-1.8-.4-3.1-.6-3.8-.6z"/>
    <path class="st0" d="M731.3 357.6l.9.1h.6c7.1 0 11.8 2.6 14.2 7.8.5 1.5.8 2.5.8 3v.1c0 .1-.1.1-.2.1l.2.3c0 3.6-1.3 6.6-3.8 9.1 0 .2-.7.9-2.2 2.3-1.3 3.4-2.7 5.8-4.2 7.2-1.4 1.7-3.4 3.4-5.9 4.9h.3c3.9-.8 6.2-1.6 7.1-2.4 2.6-1.8 3.9-2.6 4-2.6 2.8-2.9 4.8-5.3 5.8-7.2 1.8-3 3-4.5 3.8-4.5h.3c.2 0 .3.1.3.3-.8 3.3-3 6.9-6.4 10.7-2.6 2.6-5.2 4.6-7.7 5.8-3.4 1.7-7.4 2.5-12.1 2.5h-.1c-.1 0-.5-.1-1.3-.3h-1.6c-1.1-.1-3.1-1-6.1-2.6-2.7-2.2-4.3-4-4.8-5.3-.5 0-1.2-1.6-2.2-4.7-.4-2.3-.6-3.7-.6-4.2 0-3.8 1.3-7.7 3.8-11.6 3.5-4.1 6-6.1 7.5-6.1 1-.8 3.3-1.6 6.9-2.3 1.7-.2 2.6-.3 2.7-.4zm-17.9 15.7c-.4 1.9-.6 3.6-.6 5.3v.3c0 .4 0 1 .1 1.7-.1.2-.1.4-.1.6l.3.2v-.3c0-2.3.2-4.9.6-7.8h-.3zm2.1.8l-.5 3.3c.3.5.5.8.5 1h.3c0-.9.1-2.2.4-3.9-.3-.3-.5-.4-.7-.4zm.4 12.6v.5c.8 1 1.6 1.9 2.5 2.6h.1v-.1c-.4-.5-1-1.6-1.9-3.1h-.1c-.1.1-.3.1-.6.1zm.8-17.8c0 .2-.2.6-.6 1.1v.5c.1 0 .5-.5 1-1.6h-.4zm1.3 10c0 3.4 1.4 6.8 4.1 10.2 1.5 1.6 2.9 2.5 4 2.8 3.1 0 6.2-1.6 9.4-4.7 1.1-1.3 2.2-2.9 3.3-5h-.1c-1.2.3-2.6.6-4.2.8-3.2-.4-5.5-1.1-6.9-2-1.8-1.6-2.9-3.3-3.3-5.3-.1 0-.1-.1-.1-.3 0-3.9.4-5.8 1.1-5.8 1.1-1.4 2.1-2.2 2.8-2.2h.5c.1 0 .3.2.5.5v.1c0 .5-.6 1.3-1.9 2.5-.4.9-.7 2.2-.8 3.9 0 2 .8 3.5 2.5 4.7 0 .5 1.7 1 5 1.5 4.4-.4 6.6-1.5 6.6-3.1 0-1 0-1.7.1-2 0-3.5-1.1-6.5-3.3-8.9-1.9-1.6-4-2.7-6.1-3.4-1.1-.1-1.6-.3-1.6-.6v-.6c0-.3.5-.5 1.4-.6 3.3 0 6.5 1.8 9.7 5.5 1.5 3.3 2.3 6.3 2.4 8.8-.1 0-.1 0-.1.1h.4c0-.2.5-1.2 1.6-2.9.3-.6.5-1.2.5-1.7 0-3.9-.5-6.1-1.6-6.7-2.3-2.8-5.3-4.2-8.9-4.2-3.1 0-6.1.9-9.1 2.6-3.9 3.1-6.4 6.7-7.4 11-.3 1.6-.4 3.3-.5 5zm1.1-14.4v.3h.1c.4-.2.8-.7 1.1-1.3h-.1c-.8.6-1.1.9-1.1 1z"/>
    <path class="st0" d="M768.9 357c2.1.4 3.7.9 4.7 1.5 1 .4 1.8 1 2.2 1.8.5.9.8 1.5.8 1.6-.1.6-.2.8-.4.8h-.7c-1.4-1.9-2.8-3.1-4.2-3.4 0-.2-.7-.4-2.2-.6-1.7.5-2.6 1.5-2.6 3 0 2.2 1.2 3.9 3.7 5.2.6.6 1.6 1.2 3.1 1.8 0 .1 1.1 1 3.3 2.5.1 0 1.3 1.3 3.6 4 1 2.3 1.5 3.9 1.5 4.9l-.1.3c.2.3.3.8.3 1.5 0 2.3-.8 4.9-2.4 8.1l.3.1c3.2-2.4 5.6-5 7.2-7.8.9-1.2 1.7-2.8 2.4-4.8 1-2.5 1.6-4.2 1.9-5.2l.4-.3h.4c.1 0 .3.2.8.7-.2 1.2-.3 1.8-.4 1.8l.1.3v.3l-2.5 5.9c-1.1 2-3 4.6-5.9 7.9-4.1 4.1-8.9 6.1-14.2 6.1-2.5 0-5.4-1-8.9-3l-3.7-3c-1.5-2.1-2.4-3.6-2.6-4.7.2-.4.4-.6.6-.7h.1c.1 0 .9 1 2.3 3 2.6 2.3 5.1 3.4 7.5 3.4 0 .1.5.2 1.4.3 1.8 0 3.5-1 5.2-3 .8-.9 1.3-2.2 1.5-4v-1c0-.2-.1-.5-.3-.8l.1-.6c-.9-2.4-2.4-4.7-4.6-7-3.4-3-5.3-5.1-5.5-6.4-.6-1.3-1-2.5-1-3.8.1-.2.1-.3.1-.4-.1-.5-.1-.8-.1-1.1h-.3c-.9.5-2.6 2.9-5.2 7.4l-4.1 7.5c-.3.4-.5.6-.6.6h-.7c-.1 0-.3-.2-.6-.6v-.1c0-.5.9-2.4 2.6-5.6 2.6-4.5 4.5-7.5 5.7-9.1 2.5-2.7 4.2-4.1 5-4.1.7-.5 2.1-.9 4.4-1.2h.6zm-4.1 7.5v.6c.6 1.3 1.1 2.3 1.5 2.9.2 0 .4-.3.4-1-1.1-.9-1.6-1.7-1.8-2.5h-.1zm3.6 5.8v.1c.2.3.4.5.8.7v-.1l-.8-.7zm1.7 1.6v.1c0 .2.1.3.3.3h.1c0-.1-.1-.3-.4-.4zm.3-2.2v.1c0 .1.4.4 1.1 1 .2 0 .3-.1.3-.3v-.1c-.8-.4-1.2-.7-1.4-.7zm.5 2.9v.3c.1 0 .3.1.6.3h.1c0-.2-.2-.4-.7-.6zm2.4 3.4v.3c1 1.5 1.5 2.4 1.5 2.8h.3c-.6-2.1-1.2-3.1-1.8-3.1zm0 14.2v.1h.1c.2 0 .7-.5 1.4-1.5v-.1l-1.5 1.5zm5.8-6.4c-.6.4-1.2 1.6-1.8 3.4l-.8 1.8h.1c.6-.2 1.2-.9 1.8-2.1l1-3-.3-.1zm-2.4-4.8v.3c0 .2.2.9.7 2.1h.1c.2 0 .3-.1.3-.3 0-.7-.4-1.3-1.1-2.1zm1.1-2.8v.1c.3.5.4.8.4 1h.1v-.7c0-.1-.1-.3-.4-.4h-.1z"/>
    <path class="st0" d="M804.1 310.8h.2c1.3.6 1.9 4.3 1.9 11.1l.1.8c-.1.1-.1.5-.1 1 0 .4 0 1 .1 1.7-.9 9.4-2 16.6-3.3 21.6l-.8 2.7.3.2c4.4-1.3 10.8-2.7 19.3-4.3 1.1-.1 1.6-.3 1.6-.5l.6.1c2.5-.2 4.4-.5 5.8-.8h.2c.3 0 .5.1.5.1l.8-.1c7.4 0 14.6 1.5 21.8 4.4 2 1.4 3.1 2.1 3.5 2.1.4.7.6 1.2.6 1.4-.2.4-.5.6-.8.6-2.6-1.3-5-2.3-7.1-3.1-6.1-2-11.8-3-16.9-3-6.1 0-16.3 1.9-30.8 5.7-2.2 8.1-4.7 15.3-7.4 21.5-1.2 2.9-3.2 7.4-6 13.7-.1.8-1 2.5-2.7 5-.6 1.7-1.3 2.5-2.2 2.5h-.3c-.2 0-.3-.1-.3-.3 0-.3.4-1.3 1.1-3l6.5-18c2.1-7.4 3.5-13.7 4.3-19-.1-.1-.2-.5-.2-.9h-.4c-2.2.4-5.6.8-10.4 1.1-6.1-.8-9.2-1.4-9.2-2.1-1-.3-2.5-1.3-4.3-3.2-1.9-1.8-2.8-3.8-2.8-5.8-.1 0-.3-.6-.5-1.9 0-4.2 1.2-7 3.5-8.5 0-.8 2.2-1.6 6.5-2.4 3 0 5.4 1.2 7.1 3.6l.3 1.1v.4c0 .2-.1.3-.3.3h-.5c-.6-.2-1.2-.8-1.7-1.6-1-.7-2.2-1.2-3.6-1.7h-1.9c-1.7 0-3.3.7-4.9 2.2-1 1.1-1.7 2.6-2.1 4.6v1.1c.3 2.2.9 4.2 1.8 5.8.8 1.7 2.5 3.1 4.9 4.1 1.1.4 2.8.8 5.4 1.2h1.8c.4 0 .8 0 1.4.1l1.3-.3c.1 0 .3.1.5.1 1 0 3.9-.4 8.5-1.1l.1-.3c0-.2 0-.4-.1-.6.2-.4.3-.8.3-1.2 0-10.3-1.9-18.8-5.8-25.6 1.7-1.9 5.3-5.3 11-9.9 2-1.7 3.3-2.7 3.8-2.7zm-10.3 13.5c.7 0 1.3 1.3 1.8 3.8h.1v-.3c0-2.6-.5-3.9-1.4-3.9-.2-.1-.3.1-.5.4zm2.5 34.6c-1.2 4-1.7 6.5-1.7 7.3.7-.8 1.4-3.2 2.4-7.3h-.7zm.4-24.9v.8h.1v-.8h-.1zm2-11.1v.3l.2 1.6.8-.1h.5l-.1-1.6v-.5l-.8-.1c-.3 0-.4.1-.6.4zm0 10.7c.1 2.7.2 4.6.2 5.9v.1c.2 0 .3-.1.3-.3.1-2.8.2-4.7.2-5.7h-.7zm2.9-11.8c.3 2.2.4 3.5.4 3.9.2 0 .3-.1.3-.3V324l-.1-1c0-.1.1-.1.1-.1l-.1-.8v-.8h-.2c-.1 0-.3.2-.4.5zm1.2-6.9c.1 0 .3 0 .5.1l.1-.3v-.3h-.1c-.2 0-.3.2-.5.5zm.8 3v.6h.2v-.6h-.2z"/>
    <path class="st0" d="M810.1 351.1h.4c.2 0 .3.1.3.3v.1c-1.5 1.4-2.6 2.8-3.1 4.2-1.7 2.7-2.5 5.6-2.5 8.7v1.7c.7-.9 1.5-1.6 2.4-2 1.2-1.3 3.4-2.9 6.9-4.7 3.3-1.4 6.2-2.1 8.6-2.1h2.4c3.1 0 5.7.9 7.8 2.7 1.7 1.8 2.5 3.7 2.5 5.8.1.1.1.5.1 1.2 0 1.5-.9 3.5-2.8 6.1-1.5 1.7-4.1 3.3-7.7 5-.9.5-1.8.8-2.7.9-.9.4-2.7.6-5.5.6l-5.1-1.2-3.9-2.4c-.3.9-.4 1.5-.4 1.6l.3 1.2-.1.7c.7 3.6 2.1 6.5 4 8.6 2.7 1.9 5.8 2.8 9.3 2.8 4.1-.6 7.2-1.7 9.4-3.3 3.6-3.2 6-5.7 7.1-7.6.3-.4.9-1.3 1.8-2.9.3 0 .6 0 .7-.1.4.1.6.3.6.4 0 1.7-1.5 4.4-4.5 7.9-.2 0-.6.4-1.2 1.2-4.5 4-8.5 6.5-12.1 7.4-1.7.4-3.4.7-5.1.9-5.4-.5-8.1-1-8.1-1.5-.7-.4-1.6-.9-2.7-1.3-.2-.3-1.1-1-2.6-2.1-2.8-2.6-4.2-5.4-4.2-8.6-.1 0-.1-.6-.1-1.9v-1c0-.2 0-.4-.1-.6.4-2.5.9-4.3 1.7-5.5 0-.8.6-2 1.7-3.5-.3-.6-.5-1.8-.6-3.6 0-2.8.6-5.5 1.9-8.1 1.3-2.6 2.2-4 2.6-4.2.4-.9 1.3-1.5 2.6-1.8zm-7.7 26.5c0 .2-.1.4-.3.6v.7c0 1.8.5 3.9 1.5 6.4h.3l.1-.7c-1-2.6-1.5-5-1.5-7.1h-.1zm1.5.8c0 .3.2 1.4.7 3.4h.1v-.3c-.3-1.8-.4-2.9-.4-3.3h-.1l-.3.2zm1.4-2.1v.1c0 .2.1.3.3.3h.1c.2-.9.3-1.6.3-1.9-.2 0-.4.5-.7 1.5zm.3 8.1v.3c.5 1.4 1 2.1 1.3 2.2v-.1c-.7-1.6-1.2-2.4-1.3-2.4zm2.5 3.9c1 1.1 2.2 1.8 3.6 2.2-1.2-1-2-1.8-2.5-2.4-.4.2-.8.2-1.1.2zm.5-14.6c.2 0 .7.4 1.5 1.1 2.8 1.8 6 2.7 9.6 2.7 1.7 0 4.7-1.1 9-3.3 2.5-1.5 4.2-3.8 5.1-6.8v-1.7c0-1.5-1.1-3.1-3.2-4.8-1.5-.8-2.9-1.2-4.2-1.2-4.7.6-7 1.2-7 1.8-3.1 1.2-6.2 3.9-9.3 7.9l-1.5 4.3zm1.6-8.6v.1h.3c1-.8 1.5-1.3 1.5-1.4v-.1h-.1c-1.1.7-1.7 1.2-1.7 1.4z"/>
    <path class="st0" d="M857.4 310.9h.4c.9.5 1.4 3.9 1.6 10v2.2c0 2.6-.5 7.5-1.6 14.6-2.6 10.5-5.2 18.6-7.8 24.1-1.1 2.7-3 6.9-5.7 12.8-3 5.8-4.6 9.1-4.6 10-.5.6-1 2.4-1.6 5.2v.9c0 .8.5 1.5 1.6 2.1h1c1.5 0 3.8-1.9 7.1-5.6 1.7-2.1 3.9-5.4 6.6-9.9.2 0 .8-.7 1.8-2.1l.3-.1c.4.2.8.5 1 .9v.6c0 .1-2 3.1-5.9 9-2.4 3.2-4.2 5.4-5.6 6.5-2.3 2-3.9 2.9-4.6 2.9-.5.1-1.1.1-1.9.1-1.2 0-2.4-.7-3.5-2.2-.2-1.1-.3-1.6-.4-1.6l.1-1.5v-1.3c0-.9.8-3.5 2.5-7.9.5-1.2 1.4-3.9 2.6-7.9 1-2.8 2.1-6.8 3.2-12.1.8-2.6 1.2-5.2 1.2-7.9.2 0 .5-2.5.9-7.4l-.4-5.3c.1-.2.1-.4.1-.7-.2 0-.3-1.4-.4-4.3-.9-4.8-1.6-7.9-2.2-9.3-.1 0-.1-.1-.1-.3 3.6-4.1 6.3-7 8.2-8.7 0-.1.9-1.1 2.6-2.8 1.3-1.4 2.5-2.4 3.5-3zm-10.9 13.2l.1 1.8c-.1 0-.3.4-.6 1.2.8 1.7 1.2 3.1 1.2 4.3l.3.1v-.3c0-.8-.3-2.3-.9-4.6.3-.4.6-1.3.9-2.6.2 0 .3-.1.3-.3v-.1h-.4c-.4.3-.7.5-.9.5zm2-.9v.4c.4.6.7 2.2.9 4.9h-.1c0 .1 0 .1.1.1 0 .5 0 2.4.1 5.7-.1 5.3-.1 8.5-.1 9.4v.4h.1c.4-3 .6-5.1.6-6.2v-1.5c0-.3 0-.8-.1-1.3.1-.6.2-.9.3-.9l-.1-1.5v-3.4c0-3.7-.4-5.7-1.3-6.2v-.1h-.4zm4.2 12.2v1.9c0 1.2-.3 1.9-.9 2.2 0 2.4-.6 6.1-1.9 11.2 0 .4-.3 2-.9 4.9v.3h.1l1.9-7.8c.8-.4 1.2-.9 1.2-1.3.8-4.4 1.2-8.4 1.2-12.1l-.3-.1c-.3.1-.4.3-.4.8zm-.9 15.8c0 .2-.1.6-.3 1.2h.3c0-.3.1-.6.3-1l-.3-.2zm.6-31.9v.3c.3 0 .6 3.1 1 9.3h.3v-.6c0-.2.1-.8.4-1.8-.3-4.8-.8-7.2-1.5-7.2h-.2zm2.8-2.1l-.6 1c.9 1.9 1.3 5.5 1.3 10.6v3.2l-.1 1.5.3.1.4-4c-.3-5.9-.6-10.1-1-12.5h-.3zm.4 17.9v3.2h.1c.3-1.7.4-2.9.4-3.4l-.3-.1c-.1.1-.2.2-.2.3z"/>
  </g>
  <g>
    <path class="st0" d="M654.4 192.2c0 5-9.9 7.4 0 9.9 2.5-7.4-2.5-9.9-2.5-7.4"/>
  </g>
  <g>
    <path class="st0" d="M728.8 199.6c5-5 9.9-9.9 12.4-14.9"/>
  </g>
  <circle class="st0" cx="642.9" cy="199.3" r="5.8"/>
  <g>
    <path class="st0" d="M733.5 186.2c-3.8 6.3-6.3 11.3-11.3 16.4"/>
  </g>
</svg>